# xmcd
#
# Track frame offsets: 
#        150
#        25123
#        46926
#        70641
#        95061
#        118403
#        141894
#        170643
#        202241
#        225918
#        257664
#        285227
#
# Disc length: 4079 seconds
#
# Revision: 2
# Processed by: cddbd v1.5.2PL0 Copyright (c) Steve Scherf et al.
# Submitted via: ExactAudioCopy v0.99pb3
#
DISCID=a90fed0c
DTITLE=John Irving - The Fourth Hand [CD3]
DYEAR=2001
DGENRE=Audio Book
TTITLE0=John Irving - The Fourth Hand D03 TR01
TTITLE1=John Irving - The Fourth Hand D03 TR02
TTITLE2=John Irving - The Fourth Hand D03 TR03
TTITLE3=John Irving - The Fourth Hand D03 TR04
TTITLE4=John Irving - The Fourth Hand D03 TR05
TTITLE5=John Irving - The Fourth Hand D03 TR06
TTITLE6=John Irving - The Fourth Hand D03 TR07
TTITLE7=John Irving - The Fourth Hand D03 TR08
TTITLE8=John Irving - The Fourth Hand D03 TR09
TTITLE9=John Irving - The Fourth Hand D03 TR10
TTITLE10=John Irving - The Fourth Hand D03 TR11
TTITLE11=John Irving - The Fourth Hand D03 TR12
EXTD=YEAR: 2001
EXTT0=
EXTT1=
EXTT2=
EXTT3=
EXTT4=
EXTT5=
EXTT6=
EXTT7=
EXTT8=
EXTT9=
EXTT10=
EXTT11=
PLAYORDER=
